<svg xmlns="http://www.w3.org/2000/svg" viewBox="0 0 1200 200">
  <!-- Tile 1: Radial seed head on cream -->
  <rect width="300" height="200" fill="#F5EDE3"/>
  <g transform="translate(150,100)" stroke="#D08B4C" stroke-linecap="round" fill="none">
    <g stroke-width="1.2">
      <line y2="-85" transform="rotate(0)"/>
      <line y2="-80" transform="rotate(15)"/>
      <line y2="-88" transform="rotate(30)"/>
      <line y2="-75" transform="rotate(45)"/>
      <line y2="-82" transform="rotate(60)"/>
      <line y2="-90" transform="rotate(75)"/>
      <line y2="-78" transform="rotate(90)"/>
      <line y2="-85" transform="rotate(105)"/>
      <line y2="-72" transform="rotate(120)"/>
      <line y2="-88" transform="rotate(135)"/>
      <line y2="-80" transform="rotate(150)"/>
      <line y2="-86" transform="rotate(165)"/>
      <line y2="-75" transform="rotate(180)"/>
      <line y2="-82" transform="rotate(195)"/>
      <line y2="-90" transform="rotate(210)"/>
      <line y2="-78" transform="rotate(225)"/>
      <line y2="-85" transform="rotate(240)"/>
      <line y2="-70" transform="rotate(255)"/>
      <line y2="-88" transform="rotate(270)"/>
      <line y2="-80" transform="rotate(285)"/>
      <line y2="-86" transform="rotate(300)"/>
      <line y2="-74" transform="rotate(315)"/>
      <line y2="-82" transform="rotate(330)"/>
      <line y2="-90" transform="rotate(345)"/>
    </g>
    <g stroke-width="0.6" opacity="0.5">
      <line y2="-50" transform="rotate(7.5)"/>
      <line y2="-55" transform="rotate(22.5)"/>
      <line y2="-48" transform="rotate(37.5)"/>
      <line y2="-52" transform="rotate(52.5)"/>
      <line y2="-56" transform="rotate(67.5)"/>
      <line y2="-50" transform="rotate(82.5)"/>
      <line y2="-54" transform="rotate(97.5)"/>
      <line y2="-48" transform="rotate(112.5)"/>
      <line y2="-55" transform="rotate(127.5)"/>
      <line y2="-50" transform="rotate(142.5)"/>
      <line y2="-52" transform="rotate(157.5)"/>
      <line y2="-56" transform="rotate(172.5)"/>
      <line y2="-49" transform="rotate(187.5)"/>
      <line y2="-53" transform="rotate(202.5)"/>
      <line y2="-48" transform="rotate(217.5)"/>
      <line y2="-55" transform="rotate(232.5)"/>
      <line y2="-51" transform="rotate(247.5)"/>
      <line y2="-54" transform="rotate(262.5)"/>
      <line y2="-50" transform="rotate(277.5)"/>
      <line y2="-56" transform="rotate(292.5)"/>
      <line y2="-52" transform="rotate(307.5)"/>
      <line y2="-48" transform="rotate(322.5)"/>
      <line y2="-55" transform="rotate(337.5)"/>
      <line y2="-50" transform="rotate(352.5)"/>
    </g>
    <circle r="4" fill="#D08B4C"/>
    <circle r="18" stroke-width="0.6" opacity="0.3"/>
    <g fill="#B8923F" opacity="0.6">
      <circle cy="-85" r="2" transform="rotate(0)"/>
      <circle cy="-88" r="1.8" transform="rotate(30)"/>
      <circle cy="-82" r="2" transform="rotate(60)"/>
      <circle cy="-90" r="1.8" transform="rotate(75)"/>
      <circle cy="-85" r="2" transform="rotate(105)"/>
      <circle cy="-88" r="1.8" transform="rotate(135)"/>
      <circle cy="-86" r="2" transform="rotate(165)"/>
      <circle cy="-90" r="1.8" transform="rotate(210)"/>
      <circle cy="-88" r="2" transform="rotate(270)"/>
      <circle cy="-82" r="1.8" transform="rotate(330)"/>
    </g>
  </g>

  <!-- Tile 2: Topographic contours on dark green -->
  <rect x="300" width="300" height="200" fill="#2E3D26"/>
  <g fill="none" stroke-linecap="round">
    <ellipse cx="448" cy="98" rx="120" ry="85" stroke="#7A8A6E" stroke-width="1" opacity="0.5" transform="rotate(-5,448,98)"/>
    <ellipse cx="452" cy="102" rx="90" ry="65" stroke="#7A8A6E" stroke-width="1" opacity="0.55" transform="rotate(3,452,102)"/>
    <ellipse cx="450" cy="100" rx="60" ry="45" stroke="#B0AE9A" stroke-width="0.8" opacity="0.45" transform="rotate(-8,450,100)"/>
    <ellipse cx="451" cy="99" rx="32" ry="25" stroke="#B0AE9A" stroke-width="0.8" opacity="0.4" transform="rotate(5,451,99)"/>
    <ellipse cx="450" cy="100" rx="12" ry="10" stroke="#7A8A6E" stroke-width="0.6" opacity="0.35"/>
    <circle cx="450" cy="100" r="3" fill="#7A8A6E" opacity="0.25"/>
    <circle cx="540" cy="45" r="2.5" fill="#D08B4C" opacity="0.5"/>
    <circle cx="365" cy="160" r="3" fill="#D08B4C" opacity="0.4"/>
    <circle cx="560" cy="155" r="2" fill="#B8923F" opacity="0.45"/>
  </g>

  <!-- Tile 3: Cellular cross-section on terra cotta -->
  <rect x="600" width="300" height="200" fill="#D08B4C"/>
  <g fill="none" opacity="0.7">
    <circle cx="660" cy="60" r="22" stroke="#FAF6F0" stroke-width="1.2"/>
    <circle cx="660" cy="60" r="10" stroke="#FAF6F0" stroke-width="0.6"/>
    <circle cx="660" cy="60" r="3" fill="#FAF6F0" opacity="0.3"/>
    <circle cx="730" cy="130" r="30" stroke="#FAF6F0" stroke-width="1.2"/>
    <circle cx="730" cy="130" r="18" stroke="#FAF6F0" stroke-width="0.8"/>
    <circle cx="730" cy="130" r="6" fill="#FAF6F0" opacity="0.25"/>
    <circle cx="810" cy="55" r="16" stroke="#FAF6F0" stroke-width="1"/>
    <circle cx="810" cy="55" r="5" fill="#FAF6F0" opacity="0.3"/>
    <circle cx="860" cy="140" r="24" stroke="#FAF6F0" stroke-width="1"/>
    <circle cx="860" cy="140" r="12" stroke="#FAF6F0" stroke-width="0.6"/>
    <circle cx="860" cy="140" r="4" fill="#FAF6F0" opacity="0.25"/>
    <circle cx="690" cy="160" r="12" stroke="#FAF6F0" stroke-width="0.8"/>
    <circle cx="770" cy="40" r="8" stroke="#FAF6F0" stroke-width="0.6"/>
    <circle cx="840" cy="90" r="10" stroke="#FAF6F0" stroke-width="0.7"/>
    <circle cx="650" cy="120" r="5" fill="#FAF6F0" opacity="0.2"/>
    <circle cx="790" cy="170" r="6" stroke="#FAF6F0" stroke-width="0.5"/>
    <circle cx="880" cy="40" r="4" fill="#FAF6F0" opacity="0.2"/>
  </g>

  <!-- Tile 4: Organic wave lines on sage -->
  <rect x="900" width="300" height="200" fill="#7A8A6E"/>
  <g fill="none" stroke="#FAF6F0" stroke-linecap="round" opacity="0.5">
    <path d="M900,30 Q950,15 975,30 Q1000,45 1025,30 Q1050,15 1075,30 Q1100,45 1125,30 Q1150,15 1175,30 Q1200,45 1200,30" stroke-width="1"/>
    <path d="M900,55 Q940,40 965,55 Q990,70 1020,55 Q1050,40 1080,55 Q1110,70 1140,55 Q1170,40 1200,55" stroke-width="1.2"/>
    <path d="M900,80 Q935,68 960,80 Q985,92 1015,80 Q1045,68 1075,80 Q1105,92 1135,80 Q1165,68 1200,80" stroke-width="0.8"/>
    <path d="M900,105 Q945,90 975,105 Q1005,120 1035,105 Q1065,90 1095,105 Q1125,120 1155,105 Q1185,90 1200,105" stroke-width="1.2"/>
    <path d="M900,130 Q930,118 958,130 Q986,142 1018,130 Q1050,118 1082,130 Q1114,142 1146,130 Q1178,118 1200,130" stroke-width="0.8"/>
    <path d="M900,155 Q942,142 970,155 Q998,168 1030,155 Q1062,142 1094,155 Q1126,168 1158,155 Q1190,142 1200,155" stroke-width="1"/>
    <path d="M900,180 Q938,165 968,180 Q998,195 1028,180 Q1058,165 1088,180 Q1118,195 1148,180 Q1178,165 1200,180" stroke-width="1.2"/>
  </g>
  <g fill="#FAF6F0" opacity="0.15">
    <circle cx="930" cy="45" r="2"/>
    <circle cx="1020" cy="90" r="2.5"/>
    <circle cx="1100" cy="145" r="2"/>
    <circle cx="960" cy="160" r="1.8"/>
    <circle cx="1150" cy="60" r="2.2"/>
  </g>
</svg>
