<svg xmlns="http://www.w3.org/2000/svg" viewBox="0 0 400 48">
  <rect width="400" height="48" fill="#F5EDE3"/>
  <g stroke="#D08B4C" stroke-linecap="round" fill="none" stroke-width="0.7">
    <g transform="translate(55,24)">
      <line y2="-14" transform="rotate(0)"/><line y2="-12" transform="rotate(45)"/>
      <line y2="-14" transform="rotate(90)"/><line y2="-12" transform="rotate(135)"/>
      <line y2="-14" transform="rotate(180)"/><line y2="-12" transform="rotate(225)"/>
      <line y2="-14" transform="rotate(270)"/><line y2="-12" transform="rotate(315)"/>
    </g>
    <g transform="translate(175,22)">
      <line y2="-17" transform="rotate(0)"/><line y2="-14" transform="rotate(45)"/>
      <line y2="-17" transform="rotate(90)"/><line y2="-14" transform="rotate(135)"/>
      <line y2="-17" transform="rotate(180)"/><line y2="-14" transform="rotate(225)"/>
      <line y2="-17" transform="rotate(270)"/><line y2="-14" transform="rotate(315)"/>
    </g>
    <g transform="translate(310,26)">
      <line y2="-12" transform="rotate(0)"/><line y2="-10" transform="rotate(45)"/>
      <line y2="-12" transform="rotate(90)"/><line y2="-10" transform="rotate(135)"/>
      <line y2="-12" transform="rotate(180)"/><line y2="-10" transform="rotate(225)"/>
      <line y2="-12" transform="rotate(270)"/><line y2="-10" transform="rotate(315)"/>
    </g>
  </g>
  <g fill="#D08B4C" opacity="0.4">
    <circle cx="55" cy="24" r="2"/><circle cx="175" cy="22" r="2.5"/><circle cx="310" cy="26" r="1.8"/>
  </g>
  <g fill="#B8923F" opacity="0.35">
    <circle cx="115" cy="12" r="1.5"/><circle cx="245" cy="38" r="1.8"/><circle cx="370" cy="14" r="1.3"/>
  </g>
</svg>
