<svg xmlns="http://www.w3.org/2000/svg" viewBox="0 0 400 48">
  <rect width="400" height="48" fill="#F5EDE3"/>
  <g fill="none" stroke-linecap="round">
    <path d="M0,8 Q60,4 130,10 Q200,18 270,6 Q340,0 400,12" stroke="#2E3D26" stroke-width="0.8" opacity="0.45"/>
    <path d="M0,20 Q80,14 160,22 Q230,30 310,18 Q360,12 400,24" stroke="#7A8A6E" stroke-width="1" opacity="0.5"/>
    <path d="M0,32 Q50,26 120,34 Q200,42 280,30 Q350,24 400,36" stroke="#2E3D26" stroke-width="0.8" opacity="0.4"/>
    <path d="M0,42 Q70,38 150,44 Q230,48 310,40 Q370,36 400,44" stroke="#7A8A6E" stroke-width="0.6" opacity="0.35"/>
  </g>
  <g fill="#D08B4C" opacity="0.4">
    <circle cx="100" cy="38" r="2"/><circle cx="260" cy="10" r="1.8"/><circle cx="380" cy="32" r="1.5"/>
  </g>
</svg>
